<svg width="672" height="923" viewBox="0 0 672 923" fill="none" xmlns="http://www.w3.org/2000/svg">
<g filter="url(#filter0_d_528_1339)">
<rect x="100" y="96" width="471.062" height="722.736" rx="20" fill="black" fill-opacity="0.35" shape-rendering="crispEdges"/>
<rect x="105" y="101" width="461.062" height="712.736" rx="15" stroke="url(#paint0_linear_528_1339)" stroke-width="10" shape-rendering="crispEdges"/>
</g>
<path d="M406.257 330.5C406.257 415 334.757 438.5 334.757 534H296.757C296.757 420.5 367.257 398 366.257 329C365.757 303 342.757 293.5 316.757 293.5C299.257 293.5 280.257 297.5 265.757 304V263C282.257 258.5 299.257 256 315.757 256C364.257 256 406.257 278 406.257 330.5ZM292.257 590.5C292.257 577 302.257 566.5 315.757 566.5C328.757 566.5 339.257 577 339.257 590.5C339.257 603.5 328.757 614 315.757 614C302.257 614 292.257 603.5 292.257 590.5Z" fill="url(#paint1_linear_528_1339)"/>
<defs>
<filter id="filter0_d_528_1339" x="0" y="0" width="671.062" height="922.736" filterUnits="userSpaceOnUse" color-interpolation-filters="sRGB">
<feFlood flood-opacity="0" result="BackgroundImageFix"/>
<feColorMatrix in="SourceAlpha" type="matrix" values="0 0 0 0 0 0 0 0 0 0 0 0 0 0 0 0 0 0 127 0" result="hardAlpha"/>
<feOffset dy="4"/>
<feGaussianBlur stdDeviation="50"/>
<feComposite in2="hardAlpha" operator="out"/>
<feColorMatrix type="matrix" values="0 0 0 0 0 0 0 0 0 0 0 0 0 0 0 0 0 0 0.25 0"/>
<feBlend mode="normal" in2="BackgroundImageFix" result="effect1_dropShadow_528_1339"/>
<feBlend mode="normal" in="SourceGraphic" in2="effect1_dropShadow_528_1339" result="shape"/>
</filter>
<linearGradient id="paint0_linear_528_1339" x1="335.531" y1="96" x2="335.531" y2="818.736" gradientUnits="userSpaceOnUse">
<stop stop-color="#FFB53D"/>
<stop offset="0.5" stop-color="white"/>
<stop offset="0.75" stop-color="#865200"/>
<stop offset="0.875" stop-color="#765C33"/>
<stop offset="1"/>
</linearGradient>
<linearGradient id="paint1_linear_528_1339" x1="335.962" y1="154" x2="335.962" y2="760.006" gradientUnits="userSpaceOnUse">
<stop stop-color="#FFB53D"/>
<stop offset="0.461538" stop-color="white"/>
<stop offset="0.572115" stop-color="#865200"/>
<stop offset="0.615385" stop-color="#FFC260"/>
<stop offset="1"/>
</linearGradient>
</defs>
</svg>
